# xmcd CD database file
# Copyright (C) 1997 Ti Kan
# 
# Track frame offsets:
#     150
#     22628
#     34285
#     55498
#     69378
#     84700
#     108760
#     123025
#     137655
# 
# Disc length: 1993 seconds
# 
# Revision: 1
# Processed by: cddbd v1.4b41PL1 Copyright (c) Steve Scherf et al.
# Submitted via: DiscPlay 4.0.4
# 
DISCID=6c07c709
DTITLE=D.C. and Co. - Somethin' Definately Goin' On
DYEAR=1900
DGENRE=
TTITLE0=5:21
TTITLE1=On a Train
TTITLE2=Got To
TTITLE3=Take a Walk
TTITLE4=Just Go
TTITLE5=A Dream Away
TTITLE6=Take It
TTITLE7=Roller Coaster Ride
TTITLE8=Seperate Your Wash
EXTD=
EXTT0=
EXTT1=
EXTT2=
EXTT3=
EXTT4=
EXTT5=
EXTT6=
EXTT7=
EXTT8=
PLAYORDER=
